<svg xmlns="http://www.w3.org/2000/svg" style="display: none;">
  
    <symbol id="icon-github" viewBox="0 0 512 512">
      <path d="m475 256c0 48-14 91-41 129-28 38-64 65-109 79-5 1-8 1-11-2-2-2-3-5-3-8l0-61c0-18-5-32-15-40 11-1 20-3 29-5 9-3 18-6 27-11 9-6 17-12 23-19 6-8 11-18 15-30 4-13 6-27 6-43 0-23-8-43-23-59 7-18 7-37-2-59-5-1-13 0-23 4-10 3-19 8-26 12l-11 7c-18-5-36-7-55-7-19 0-37 2-55 7-3-2-7-5-12-8-5-3-13-6-24-11-11-4-19-5-24-4-9 22-9 41-2 59-15 16-23 36-23 59 0 16 2 30 6 42 4 13 9 23 15 30 6 8 14 14 23 20 9 5 18 8 27 11 8 2 18 4 29 5-8 7-12 17-14 29-4 2-8 4-13 5-4 1-10 1-16 1-6 0-13-2-19-6-6-4-11-10-16-18-3-6-8-11-14-15-5-4-10-6-14-7l-5-1c-4 0-7 1-9 2-1 1-2 2-1 3 0 1 1 3 2 4 2 1 3 2 4 3l2 2c4 2 8 5 13 11 4 5 7 10 9 14l2 7c3 7 7 13 13 17 6 5 12 8 19 9 7 1 14 2 20 2 6 0 12 0 16-1l6-1c0 7 0 16 1 25 0 10 0 15 0 16 0 3-2 6-4 8-2 3-6 3-11 2-45-14-81-41-109-79-27-38-41-81-41-129 0-40 9-77 29-110 20-34 46-60 80-80 33-20 70-29 110-29 40 0 77 9 110 29 34 20 60 46 80 80 20 33 29 70 29 110z"/>
    </symbol>
  
    <symbol id="icon-email" viewBox="0 0 512 512">
      <path d="m512 203l0 227c0 12-4 23-13 32-9 9-20 13-33 13l-420 0c-13 0-24-4-33-13-9-9-13-20-13-32l0-227c8 9 18 17 29 25 69 47 116 79 142 98 11 8 20 15 26 19 7 4 16 9 27 14 12 4 22 7 32 7l0 0c10 0 20-3 32-7 11-5 20-10 27-14 6-4 15-11 26-19 33-23 80-56 142-98 11-8 21-16 29-25z m0-84c0 15-5 29-14 43-9 14-21 25-35 35-71 50-116 81-134 93-1 1-6 4-12 9-6 4-11 8-15 11-4 2-9 5-15 9-6 3-11 6-16 8-6 1-10 2-15 2l0 0c-5 0-9-1-15-2-5-2-10-5-16-8-6-4-11-7-15-9-4-3-9-7-15-11-6-5-11-8-12-9-18-12-43-30-75-52-33-23-52-36-59-41-12-8-23-19-33-33-11-14-16-27-16-39 0-15 4-27 12-37 8-10 19-15 34-15l420 0c13 0 23 5 32 14 9 9 14 19 14 32z"/>
    </symbol>
  
    <symbol id="icon-twitter" viewBox="0 0 512 512">
      <path d="m481 117c-13 18-28 34-46 47 0 3 0 7 0 12 0 25-3 50-11 74-7 25-18 49-33 71-14 23-32 43-52 61-21 17-45 31-74 41-29 11-60 16-92 16-52 0-99-14-142-42 7 1 14 2 22 2 43 0 81-14 115-40-20 0-38-6-54-18-16-12-27-27-33-46 7 1 13 2 18 2 8 0 16-1 24-4-21-4-39-15-53-31-14-17-21-37-21-59l0-1c13 7 27 11 42 11-13-8-23-19-30-32-8-14-11-29-11-44 0-17 4-33 12-47 23 28 51 51 84 68 33 17 69 27 107 29-2-8-3-15-3-22 0-25 9-47 27-65 18-18 40-27 66-27 26 0 49 10 67 29 21-4 40-11 59-22-7 22-21 39-41 51 18-2 35-7 53-14z"/>
    </symbol>
  
    <symbol id="icon-linkedin" viewBox="0 0 512 512">
      <path d="m104 404l66 0 0-198-66 0z m71-259c-1-10-4-19-11-25-6-6-15-10-26-10-11 0-20 4-27 10-7 6-11 15-11 25 0 9 4 17 10 24 7 7 16 10 27 10l0 0c11 0 20-3 27-10 7-7 11-15 11-24z m167 259l66 0 0-114c0-29-7-51-21-66-14-15-32-23-55-23-26 0-46 11-60 34l1 0 0-29-66 0c0 12 0 78 0 198l66 0 0-111c0-7 0-12 2-16 2-7 7-12 12-17 6-5 13-7 22-7 22 0 33 15 33 45z m133-285l0 274c0 23-8 42-24 58-16 16-35 24-58 24l-274 0c-23 0-42-8-58-24-16-16-24-35-24-58l0-274c0-23 8-42 24-58 16-16 35-24 58-24l274 0c23 0 42 8 58 24 16 16 24 35 24 58z"/>
    </symbol>
  
    <symbol id="icon-link" viewBox="0 0 512 512">
      <path d="m384 128l-69 0c24 16 47 45 54 64l15 0c32 0 64 32 64 64 0 32-33 64-64 64l-96 0c-32 0-64-32-64-64 0-11 3-22 9-32l-69 0c-2 11-4 21-4 32 0 64 64 128 128 128 64 0 32 0 96 0 64 0 128-64 128-128 0-64-64-128-128-128z m-240 192l-15 0c-33 0-64-32-64-64 0-32 32-64 64-64l96 0c31 0 64 32 64 64 0 12-4 23-9 32l68 0c3-10 4-21 4-32 0-64-63-128-127-128-64 0-33 0-97 0-64 0-128 64-128 128 0 64 64 128 128 128l69 0c-24-16-46-44-53-64z"/>
    </symbol>
  
    <symbol id="icon-upload" viewBox="0 0 512 512">
      <path d="m384 421c0-5-2-10-5-13-4-4-8-6-13-6-5 0-10 2-13 6-4 3-6 8-6 13 0 5 2 9 6 12 3 4 8 6 13 6 5 0 9-2 13-6 3-3 5-7 5-12z m73 0c0-5-2-10-5-13-4-4-8-6-13-6-5 0-9 2-13 6-4 3-5 8-5 13 0 5 1 9 5 12 4 4 8 6 13 6 5 0 9-2 13-6 3-3 5-7 5-12z m37-64l0 91c0 8-3 14-8 19-6 6-12 8-20 8l-420 0c-8 0-14-2-20-8-5-5-8-11-8-19l0-91c0-8 3-15 8-20 6-5 12-8 20-8l122 0c4 11 10 20 20 26 9 7 20 11 31 11l74 0c11 0 22-4 31-11 10-6 16-15 20-26l122 0c8 0 14 3 20 8 5 5 8 12 8 20z m-93-186c-3 8-9 12-17 12l-73 0 0 128c0 5-2 9-6 13-3 3-7 5-12 5l-74 0c-5 0-9-2-12-5-4-4-6-8-6-13l0-128-73 0c-8 0-14-4-17-12-3-7-2-14 4-19l128-128c4-4 8-6 13-6 5 0 9 2 13 6l128 128c6 5 7 12 4 19z"/>
    </symbol>
  
    <symbol id="icon-upload-2" viewBox="0 0 512 512">
      <path d="m440 254l-93 0c-12 0-22 7-25 17c-10 28-36 46-66 46c-30 0-56-18-66-46c-3-10-13-17-25-17l-93 0c-14 0-26 11-26 25l0 144c0 14 12 25 26 25l368 0c14 0 26-11 26-25l0-144c0-14-12-25-26-25z m-257-79l34 0l0 88c0 4 4 7 7 7l64 0c3 0 7-3 7-7l0-88l34 0c2 0 5-1 6-3c1-2 1-5-1-7l-73-98c-1-2-3-3-5-3l0 0c-3 0-5 1-6 3l-72 98c-2 2-2 5-1 7c1 2 4 3 6 3z"/>
    </symbol>
  
    <symbol id="icon-upload-1" viewBox="0 0 512 512">
      <path d="m256 38c0 0 133 125 133 125c0 0-84 0-84 0c0 0 0 131 0 131c0 0-97 0-97 0c0 0 0-131 0-131c0 0-85 0-85 0c0 0 133-125 133-125m239 296c7 3 11 9 14 16c3 8 4 15 2 21c0 0-14 79-14 79c-2 6-6 12-12 16c-6 5-13 7-20 7c0 0-418 0-418 0c-8 0-14-2-21-7c-6-4-9-10-11-16c0 0-14-79-14-79c-4-17 2-29 16-37c0 0 81-55 81-55c0 0 50 0 50 0c0 0-87 66-87 66c0 0 91 0 91 0c3 0 5 1 7 4c0 0 20 57 20 57c0 0 154 0 154 0c0 0 20-57 20-57c3-3 5-4 6-4c0 0 91 0 91 0c0 0-87-66-87-66c0 0 51 0 51 0c0 0 81 55 81 55"/>
    </symbol>
  
</svg>
